<mxfile host="www.draw.io" modified="2019-10-20T16:26:43.457Z" agent="Mozilla/5.0 (Windows NT 10.0; Win64; x64) AppleWebKit/537.36 (KHTML, like Gecko) Chrome/77.0.3865.120 Safari/537.36" etag="XPSOKE_wFAdUgNgpfRCC" version="12.1.3" type="github" pages="1">
  <diagram id="6a731a19-8d31-9384-78a2-239565b7b9f0" name="Page-1">
    <mxGraphModel dx="1309" dy="701" grid="1" gridSize="10" guides="1" tooltips="1" connect="1" arrows="1" fold="1" page="1" pageScale="1" pageWidth="3300" pageHeight="2339" background="#ffffff" math="0" shadow="0">
      <root>
        <mxCell id="0"/>
        <mxCell id="1" parent="0"/>
        <mxCell id="aKWRGS4ucthc0rQLZSRl-57" value="" style="edgeStyle=orthogonalEdgeStyle;rounded=0;orthogonalLoop=1;jettySize=auto;html=1;" edge="1" parent="1" source="aKWRGS4ucthc0rQLZSRl-55" target="aKWRGS4ucthc0rQLZSRl-56">
          <mxGeometry relative="1" as="geometry"/>
        </mxCell>
        <mxCell id="aKWRGS4ucthc0rQLZSRl-55" value="Start" style="ellipse;whiteSpace=wrap;html=1;" vertex="1" parent="1">
          <mxGeometry x="1060" y="80" width="120" height="80" as="geometry"/>
        </mxCell>
        <mxCell id="aKWRGS4ucthc0rQLZSRl-59" value="" style="edgeStyle=orthogonalEdgeStyle;rounded=0;orthogonalLoop=1;jettySize=auto;html=1;" edge="1" parent="1" source="aKWRGS4ucthc0rQLZSRl-56" target="aKWRGS4ucthc0rQLZSRl-58">
          <mxGeometry relative="1" as="geometry"/>
        </mxCell>
        <mxCell id="aKWRGS4ucthc0rQLZSRl-56" value="Jarak, Kecapatan, Waktu, Cafe,&lt;br&gt;BayarSPBU, liter,&lt;br&gt;lamaperjalan" style="shape=hexagon;perimeter=hexagonPerimeter2;whiteSpace=wrap;html=1;" vertex="1" parent="1">
          <mxGeometry x="1060" y="200" width="120" height="80" as="geometry"/>
        </mxCell>
        <mxCell id="aKWRGS4ucthc0rQLZSRl-61" value="" style="edgeStyle=orthogonalEdgeStyle;rounded=0;orthogonalLoop=1;jettySize=auto;html=1;" edge="1" parent="1" source="aKWRGS4ucthc0rQLZSRl-58" target="aKWRGS4ucthc0rQLZSRl-60">
          <mxGeometry relative="1" as="geometry"/>
        </mxCell>
        <mxCell id="aKWRGS4ucthc0rQLZSRl-58" value="Input Jarak,&lt;br&gt;Kecepatan" style="shape=parallelogram;perimeter=parallelogramPerimeter;whiteSpace=wrap;html=1;" vertex="1" parent="1">
          <mxGeometry x="1060" y="320" width="120" height="60" as="geometry"/>
        </mxCell>
        <mxCell id="aKWRGS4ucthc0rQLZSRl-63" value="" style="edgeStyle=orthogonalEdgeStyle;rounded=0;orthogonalLoop=1;jettySize=auto;html=1;" edge="1" parent="1" source="aKWRGS4ucthc0rQLZSRl-60" target="aKWRGS4ucthc0rQLZSRl-62">
          <mxGeometry relative="1" as="geometry"/>
        </mxCell>
        <mxCell id="aKWRGS4ucthc0rQLZSRl-60" value="LamaPerjalanan =&lt;br&gt;Jarak : Kecepatan" style="rounded=0;whiteSpace=wrap;html=1;" vertex="1" parent="1">
          <mxGeometry x="1060" y="430" width="120" height="60" as="geometry"/>
        </mxCell>
        <mxCell id="aKWRGS4ucthc0rQLZSRl-65" value="" style="edgeStyle=orthogonalEdgeStyle;rounded=0;orthogonalLoop=1;jettySize=auto;html=1;" edge="1" parent="1" source="aKWRGS4ucthc0rQLZSRl-62" target="aKWRGS4ucthc0rQLZSRl-64">
          <mxGeometry relative="1" as="geometry"/>
        </mxCell>
        <mxCell id="aKWRGS4ucthc0rQLZSRl-68" value="" style="edgeStyle=orthogonalEdgeStyle;rounded=0;orthogonalLoop=1;jettySize=auto;html=1;" edge="1" parent="1" source="aKWRGS4ucthc0rQLZSRl-62" target="aKWRGS4ucthc0rQLZSRl-67">
          <mxGeometry relative="1" as="geometry"/>
        </mxCell>
        <mxCell id="aKWRGS4ucthc0rQLZSRl-62" value="RestArea ada&lt;br&gt;cafe? Y / T" style="rhombus;whiteSpace=wrap;html=1;" vertex="1" parent="1">
          <mxGeometry x="1250" y="410" width="110" height="100" as="geometry"/>
        </mxCell>
        <mxCell id="aKWRGS4ucthc0rQLZSRl-64" value="LamaPerjalanan + 15&lt;br&gt;Menit" style="rounded=0;whiteSpace=wrap;html=1;" vertex="1" parent="1">
          <mxGeometry x="1420" y="430" width="120" height="60" as="geometry"/>
        </mxCell>
        <mxCell id="aKWRGS4ucthc0rQLZSRl-66" value="T" style="text;html=1;resizable=0;points=[];autosize=1;align=left;verticalAlign=top;spacingTop=-4;" vertex="1" parent="1">
          <mxGeometry x="1382" y="445" width="20" height="10" as="geometry"/>
        </mxCell>
        <mxCell id="aKWRGS4ucthc0rQLZSRl-67" value="LamaPerjalanan + 15&lt;br&gt;Menit + 20 Menit" style="rounded=0;whiteSpace=wrap;html=1;" vertex="1" parent="1">
          <mxGeometry x="1245" y="550" width="120" height="60" as="geometry"/>
        </mxCell>
        <mxCell id="aKWRGS4ucthc0rQLZSRl-69" value="Y" style="text;html=1;resizable=0;points=[];autosize=1;align=left;verticalAlign=top;spacingTop=-4;" vertex="1" parent="1">
          <mxGeometry x="1314" y="525" width="20" height="10" as="geometry"/>
        </mxCell>
        <mxCell id="aKWRGS4ucthc0rQLZSRl-74" value="" style="edgeStyle=orthogonalEdgeStyle;rounded=0;orthogonalLoop=1;jettySize=auto;html=1;" edge="1" parent="1" source="aKWRGS4ucthc0rQLZSRl-70" target="aKWRGS4ucthc0rQLZSRl-73">
          <mxGeometry relative="1" as="geometry"/>
        </mxCell>
        <mxCell id="aKWRGS4ucthc0rQLZSRl-76" value="" style="edgeStyle=orthogonalEdgeStyle;rounded=0;orthogonalLoop=1;jettySize=auto;html=1;" edge="1" parent="1" source="aKWRGS4ucthc0rQLZSRl-70" target="aKWRGS4ucthc0rQLZSRl-75">
          <mxGeometry relative="1" as="geometry"/>
        </mxCell>
        <mxCell id="aKWRGS4ucthc0rQLZSRl-70" value="Stok Bahan Bakar&lt;br&gt;Ada / Tidak ?" style="rhombus;whiteSpace=wrap;html=1;" vertex="1" parent="1">
          <mxGeometry x="1540" y="600" width="120" height="120" as="geometry"/>
        </mxCell>
        <mxCell id="aKWRGS4ucthc0rQLZSRl-71" value="" style="edgeStyle=elbowEdgeStyle;elbow=horizontal;endArrow=classic;html=1;exitX=0.5;exitY=1;exitDx=0;exitDy=0;entryX=0;entryY=0.5;entryDx=0;entryDy=0;" edge="1" parent="1" source="aKWRGS4ucthc0rQLZSRl-67" target="aKWRGS4ucthc0rQLZSRl-70">
          <mxGeometry width="50" height="50" relative="1" as="geometry">
            <mxPoint x="1490" y="740" as="sourcePoint"/>
            <mxPoint x="1540" y="690" as="targetPoint"/>
            <Array as="points">
              <mxPoint x="1305" y="640"/>
            </Array>
          </mxGeometry>
        </mxCell>
        <mxCell id="aKWRGS4ucthc0rQLZSRl-72" value="" style="edgeStyle=elbowEdgeStyle;elbow=horizontal;endArrow=classic;html=1;exitX=1;exitY=0.5;exitDx=0;exitDy=0;entryX=0.5;entryY=0;entryDx=0;entryDy=0;" edge="1" parent="1" source="aKWRGS4ucthc0rQLZSRl-64" target="aKWRGS4ucthc0rQLZSRl-70">
          <mxGeometry width="50" height="50" relative="1" as="geometry">
            <mxPoint x="1580" y="460" as="sourcePoint"/>
            <mxPoint x="1630" y="410" as="targetPoint"/>
            <Array as="points">
              <mxPoint x="1600" y="530"/>
            </Array>
          </mxGeometry>
        </mxCell>
        <mxCell id="aKWRGS4ucthc0rQLZSRl-73" value="LamaPerjalanan + 2 Menit" style="rounded=0;whiteSpace=wrap;html=1;" vertex="1" parent="1">
          <mxGeometry x="1540" y="780" width="120" height="60" as="geometry"/>
        </mxCell>
        <mxCell id="aKWRGS4ucthc0rQLZSRl-78" value="" style="edgeStyle=orthogonalEdgeStyle;rounded=0;orthogonalLoop=1;jettySize=auto;html=1;" edge="1" parent="1" source="aKWRGS4ucthc0rQLZSRl-75" target="aKWRGS4ucthc0rQLZSRl-77">
          <mxGeometry relative="1" as="geometry"/>
        </mxCell>
        <mxCell id="aKWRGS4ucthc0rQLZSRl-75" value="Bayar : 10.000 = ... Liter" style="rounded=0;whiteSpace=wrap;html=1;" vertex="1" parent="1">
          <mxGeometry x="1720" y="630" width="120" height="60" as="geometry"/>
        </mxCell>
        <mxCell id="aKWRGS4ucthc0rQLZSRl-82" value="" style="edgeStyle=orthogonalEdgeStyle;rounded=0;orthogonalLoop=1;jettySize=auto;html=1;" edge="1" parent="1" source="aKWRGS4ucthc0rQLZSRl-77" target="aKWRGS4ucthc0rQLZSRl-79">
          <mxGeometry relative="1" as="geometry"/>
        </mxCell>
        <mxCell id="aKWRGS4ucthc0rQLZSRl-77" value="liter : 2 = ... Menit +&amp;nbsp;&lt;br&gt;Lama Perjalan" style="rounded=0;whiteSpace=wrap;html=1;" vertex="1" parent="1">
          <mxGeometry x="1920" y="630" width="120" height="60" as="geometry"/>
        </mxCell>
        <mxCell id="aKWRGS4ucthc0rQLZSRl-85" value="" style="edgeStyle=orthogonalEdgeStyle;rounded=0;orthogonalLoop=1;jettySize=auto;html=1;" edge="1" parent="1" source="aKWRGS4ucthc0rQLZSRl-79" target="aKWRGS4ucthc0rQLZSRl-84">
          <mxGeometry relative="1" as="geometry"/>
        </mxCell>
        <mxCell id="aKWRGS4ucthc0rQLZSRl-88" value="" style="edgeStyle=orthogonalEdgeStyle;rounded=0;orthogonalLoop=1;jettySize=auto;html=1;" edge="1" parent="1" source="aKWRGS4ucthc0rQLZSRl-79" target="aKWRGS4ucthc0rQLZSRl-86">
          <mxGeometry relative="1" as="geometry"/>
        </mxCell>
        <mxCell id="aKWRGS4ucthc0rQLZSRl-79" value="oleh oleh&amp;nbsp;&lt;br&gt;Uang == 500.000" style="rhombus;whiteSpace=wrap;html=1;" vertex="1" parent="1">
          <mxGeometry x="1920" y="750" width="120" height="120" as="geometry"/>
        </mxCell>
        <mxCell id="aKWRGS4ucthc0rQLZSRl-89" value="" style="edgeStyle=orthogonalEdgeStyle;rounded=0;orthogonalLoop=1;jettySize=auto;html=1;" edge="1" parent="1" source="aKWRGS4ucthc0rQLZSRl-84" target="aKWRGS4ucthc0rQLZSRl-87">
          <mxGeometry relative="1" as="geometry"/>
        </mxCell>
        <mxCell id="aKWRGS4ucthc0rQLZSRl-84" value="oleh oleh&amp;nbsp;&lt;br&gt;Uang &amp;lt; 500.000" style="rhombus;whiteSpace=wrap;html=1;" vertex="1" parent="1">
          <mxGeometry x="1920" y="930" width="120" height="120" as="geometry"/>
        </mxCell>
        <mxCell id="aKWRGS4ucthc0rQLZSRl-83" value="" style="endArrow=classic;html=1;exitX=1;exitY=0.5;exitDx=0;exitDy=0;" edge="1" parent="1" source="aKWRGS4ucthc0rQLZSRl-73" target="aKWRGS4ucthc0rQLZSRl-79">
          <mxGeometry width="50" height="50" relative="1" as="geometry">
            <mxPoint x="1640" y="840" as="sourcePoint"/>
            <mxPoint x="1690" y="780" as="targetPoint"/>
          </mxGeometry>
        </mxCell>
        <mxCell id="aKWRGS4ucthc0rQLZSRl-86" value="LamaPerjalanan + 30 Menit" style="rounded=0;whiteSpace=wrap;html=1;" vertex="1" parent="1">
          <mxGeometry x="2090" y="780" width="120" height="60" as="geometry"/>
        </mxCell>
        <mxCell id="aKWRGS4ucthc0rQLZSRl-87" value="LamaPerjalanan + 15 Menit" style="rounded=0;whiteSpace=wrap;html=1;" vertex="1" parent="1">
          <mxGeometry x="2090" y="960" width="120" height="60" as="geometry"/>
        </mxCell>
        <mxCell id="aKWRGS4ucthc0rQLZSRl-94" value="" style="edgeStyle=orthogonalEdgeStyle;rounded=0;orthogonalLoop=1;jettySize=auto;html=1;" edge="1" parent="1" source="aKWRGS4ucthc0rQLZSRl-90" target="aKWRGS4ucthc0rQLZSRl-93">
          <mxGeometry relative="1" as="geometry"/>
        </mxCell>
        <mxCell id="aKWRGS4ucthc0rQLZSRl-90" value="Lama Perjalanan Sofi &lt;br&gt;dari Kota A Ke B = ... Menit" style="shape=parallelogram;perimeter=parallelogramPerimeter;whiteSpace=wrap;html=1;" vertex="1" parent="1">
          <mxGeometry x="2270" y="850" width="210" height="80" as="geometry"/>
        </mxCell>
        <mxCell id="aKWRGS4ucthc0rQLZSRl-91" value="" style="edgeStyle=elbowEdgeStyle;elbow=horizontal;endArrow=classic;html=1;exitX=1;exitY=0.5;exitDx=0;exitDy=0;entryX=0.5;entryY=1;entryDx=0;entryDy=0;" edge="1" parent="1" source="aKWRGS4ucthc0rQLZSRl-87" target="aKWRGS4ucthc0rQLZSRl-90">
          <mxGeometry width="50" height="50" relative="1" as="geometry">
            <mxPoint x="2370" y="1010" as="sourcePoint"/>
            <mxPoint x="2420" y="960" as="targetPoint"/>
            <Array as="points">
              <mxPoint x="2375" y="960"/>
            </Array>
          </mxGeometry>
        </mxCell>
        <mxCell id="aKWRGS4ucthc0rQLZSRl-92" value="" style="edgeStyle=elbowEdgeStyle;elbow=horizontal;endArrow=classic;html=1;exitX=1;exitY=0.5;exitDx=0;exitDy=0;entryX=0.5;entryY=0;entryDx=0;entryDy=0;" edge="1" parent="1" source="aKWRGS4ucthc0rQLZSRl-86" target="aKWRGS4ucthc0rQLZSRl-90">
          <mxGeometry width="50" height="50" relative="1" as="geometry">
            <mxPoint x="2450" y="1090" as="sourcePoint"/>
            <mxPoint x="2500" y="1040" as="targetPoint"/>
            <Array as="points">
              <mxPoint x="2375" y="830"/>
            </Array>
          </mxGeometry>
        </mxCell>
        <mxCell id="aKWRGS4ucthc0rQLZSRl-93" value="End" style="ellipse;whiteSpace=wrap;html=1;" vertex="1" parent="1">
          <mxGeometry x="2550" y="850" width="120" height="80" as="geometry"/>
        </mxCell>
      </root>
    </mxGraphModel>
  </diagram>
</mxfile>
